<svg xmlns="http://www.w3.org/2000/svg" xmlns:svg="http://www.w3.org/2000/svg" id="svg2" width="100%" height="100%" version="1.1" viewBox="0 0 128 128"><metadata id="metadata18"/><g id="g3767" transform="matrix(0.24961486,0,0,0.24961486,0.197194,96.049335)"><rect id="backdrop" width="501.375" height="501.375" x="5.313" y="-378.687" ry="67.108" style="fill:#000;fill-opacity:1;fill-rule:nonzero;stroke:#000;stroke-width:10.62539577;stroke-linecap:round;stroke-linejoin:round;stroke-miterlimit:4;stroke-opacity:1;stroke-dasharray:none;stroke-dashoffset:0"/><path style="fill:#000;fill-opacity:1;fill-rule:nonzero;stroke:none" id="path3790" d="M 36.267098,-7.709219 C 16.393265,5.1318032 3.2161811,27.462365 3.2161811,52.884128 c 0,39.825874 32.2852369,72.111092 72.1110909,72.111092 23.870397,0 44.964938,-11.67699 58.089488,-29.545518 -11.26063,7.275808 -24.65607,11.517748 -39.060173,11.517748 -39.825853,0 -72.11109,-32.285221 -72.11109,-72.111095 0,-15.95546 5.248882,-30.6218942 14.021601,-42.565574 z"/><g id="g6" transform="matrix(18.68858,0,0,18.68858,-3385.6437,-2608.3849)"><path style="fill:#fff" id="path8" d="m 192.2325,129.3203 -10,10 v 5.5625 h 5.375 l 10.0938,-10.0938 -5.4688,-5.4688 z"/><path style="fill:#fff;stroke:#000" id="path10" d="m 181.7796,141.8591 15.6196,-15.6178 m 3.349,3.3486 -15.8051,15.8032"/><path style="fill:#fff" id="path12" d="m 201.2023,119.7104 c -2.8283,-0.73 -5.9623,-0.004 -8.1759,2.2097 -3.3293,3.3292 -3.3293,8.7358 -2e-5,12.065 3.32928,3.3292 8.7358,3.3292 12.065,0 2.216,-2.216 2.9436,-5.3452 2.2097,-8.1759 l -5.6348,5.6348 -4.8172,-1.2816 -1.2816,-4.8171 5.6348,-5.6348 z"/></g></g></svg>